<svg width="318" height="135" viewBox="0 0 318 135" fill="none" xmlns="http://www.w3.org/2000/svg">
<rect width="318" height="135" fill="white"/>
<path d="M63.2058 110.087V77.3424C63.2058 69.3015 59.0934 61.9942 50.8685 61.9942C42.6437 61.9942 37.9966 69.3015 37.9966 77.3424V110.087H23V48.888H36.8452L37.9555 56.3061C41.1358 50.1197 48.1269 47.8915 53.8843 47.8915C61.1221 47.8915 68.36 50.8671 71.787 59.2816C77.1743 50.618 84.1243 48.1406 92.0201 48.1406C109.169 48.1406 117.627 58.7834 117.627 77.0933V110.087H102.671V77.0933C102.671 69.0524 99.3676 62.2433 91.2799 62.2433C83.1921 62.2433 78.1613 69.3015 78.1613 77.3424V110.087H63.2058Z" fill="#414042"/>
<path d="M145.564 49.0274V80.9555C145.564 90.2281 150.595 97.2863 160.15 97.2863C169.348 97.2863 175.599 89.4946 175.599 80.2082V49.0274H190.431V110.102H177.066L176.092 101.798C169.841 107.984 164.07 110.96 155.612 110.96C141.15 110.96 130.609 99.8882 130.609 81.0109V49.0274H145.564Z" fill="#414042"/>
<path d="M266.372 23.5121V110.093H252.445L251.458 101.679C246.811 108.986 239.326 111.463 231.978 111.463C214.158 111.463 200.834 99.575 200.834 79.5213C200.834 58.485 213.952 47.5931 231.608 47.5931C237.983 47.5931 247.907 51.0669 251.458 57.3778V23.5121H266.372ZM215.789 79.4521C215.789 90.0948 223.397 97.4437 232.952 97.4437C237.649 97.4437 242.154 95.5598 245.475 92.2065C248.797 88.8532 250.663 84.3051 250.663 79.5628C250.663 74.8205 248.797 70.2724 245.475 66.9191C242.154 63.5658 237.649 61.6819 232.952 61.6819C223.397 61.6543 215.789 68.4495 215.789 79.4521Z" fill="#414042"/>
<path d="M295.708 31.8176C295.708 43.5675 278.052 43.5675 278.052 31.8176C278.052 20.0677 295.708 20.0539 295.708 31.8176ZM279.396 48.7712V110.095H294.351V48.7712H279.396Z" fill="#414042"/>
</svg>
